<?xml version="1.0" encoding="UTF-8"?>
<!DOCTYPE svg PUBLIC "-//W3C//DTD SVG 1.1//EN"
    "http://www.w3.org/Graphics/SVG/1.1/DTD/svg11.dtd"><svg stroke="rgb(0,0,0)" xmlns="http://www.w3.org/2000/svg" font-size="1" width="400.0000" stroke-opacity="1" xmlns:xlink="http://www.w3.org/1999/xlink" viewBox="0.0 0.0 400.0 340.19937" height="340.1994" version="1.1"><defs></defs><g fill="rgb(0,0,0)" stroke="rgb(0,0,0)" stroke-linecap="butt" stroke-width="0.8" stroke-miterlimit="10.0" fill-opacity="0.0" stroke-opacity="1.0" stroke-linejoin="miter"><path d="M 34.5515,283.4994 h 265.7808 M 34.5515,228.1285 h 265.7808 M 34.5515,172.7575 h 265.7808 M 34.5515,117.3865 h 265.7808 M 34.5515,62.0155 h 265.7808 "/></g><g fill="rgb(0,0,0)" stroke="rgb(0,0,0)" stroke-linecap="square" stroke-width="1.4755595" stroke-miterlimit="10.0" fill-opacity="0.0" stroke-opacity="1.0" stroke-linejoin="miter"><path d="M 34.5515,305.6479 v -265.7808 M 300.3322,305.6479 v -265.7808 "/></g><g fill="rgb(0,0,0)" stroke="rgb(0,0,0)" stroke-linecap="butt" stroke-width="0.4" stroke-miterlimit="10.0" fill-opacity="0.0" stroke-opacity="1.0" stroke-linejoin="miter"><path d="M 300.3322,301.9564 h 1.9934 M 300.3322,292.7279 h 1.9934 M 300.3322,274.2710 h 1.9934 M 300.3322,265.0424 h 1.9934 M 300.3322,255.8140 h 1.9934 M 300.3322,246.5854 h 1.9934 M 300.3322,237.3570 h 1.9934 M 300.3322,218.9000 h 1.9934 M 300.3322,209.6715 h 1.9934 M 300.3322,200.4430 h 1.9934 M 300.3322,191.2145 h 1.9934 M 300.3322,181.9860 h 1.9934 M 300.3322,163.5290 h 1.9934 M 300.3322,154.3005 h 1.9934 M 300.3322,145.0720 h 1.9934 M 300.3322,135.8435 h 1.9934 M 300.3322,126.6150 h 1.9934 M 300.3322,108.1580 h 1.9934 M 300.3322,98.9295 h 1.9934 M 300.3322,89.7010 h 1.9934 M 300.3322,80.4725 h 1.9934 M 300.3322,71.2440 h 1.9934 M 300.3322,52.7870 h 1.9934 M 300.3322,43.5585 h 1.9934 "/></g><g fill="rgb(0,0,0)" stroke="rgb(0,0,0)" stroke-linecap="butt" stroke-width="0.4" stroke-miterlimit="10.0" fill-opacity="0.0" stroke-opacity="1.0" stroke-linejoin="miter"><path d="M 300.3322,283.4994 h 3.3223 M 300.3322,228.1285 h 3.3223 M 300.3322,172.7575 h 3.3223 M 300.3322,117.3865 h 3.3223 M 300.3322,62.0155 h 3.3223 "/></g><g fill="rgb(0,0,0)" stroke="rgb(0,0,0)" stroke-linecap="butt" stroke-width="0.4" stroke-miterlimit="10.0" fill-opacity="0.0" stroke-opacity="1.0" stroke-linejoin="miter"><path d="M 32.5581,301.9564 h 1.9934 M 32.5581,292.7279 h 1.9934 M 32.5581,274.2710 h 1.9934 M 32.5581,265.0424 h 1.9934 M 32.5581,255.8140 h 1.9934 M 32.5581,246.5854 h 1.9934 M 32.5581,237.3570 h 1.9934 M 32.5581,218.9000 h 1.9934 M 32.5581,209.6715 h 1.9934 M 32.5581,200.4430 h 1.9934 M 32.5581,191.2145 h 1.9934 M 32.5581,181.9860 h 1.9934 M 32.5581,163.5290 h 1.9934 M 32.5581,154.3005 h 1.9934 M 32.5581,145.0720 h 1.9934 M 32.5581,135.8435 h 1.9934 M 32.5581,126.6150 h 1.9934 M 32.5581,108.1580 h 1.9934 M 32.5581,98.9295 h 1.9934 M 32.5581,89.7010 h 1.9934 M 32.5581,80.4725 h 1.9934 M 32.5581,71.2440 h 1.9934 M 32.5581,52.7870 h 1.9934 M 32.5581,43.5585 h 1.9934 "/></g><g fill="rgb(0,0,0)" stroke="rgb(0,0,0)" stroke-linecap="butt" stroke-width="0.4" stroke-miterlimit="10.0" fill-opacity="0.0" stroke-opacity="1.0" stroke-linejoin="miter"><path d="M 31.2292,283.4994 h 3.3223 M 31.2292,228.1285 h 3.3223 M 31.2292,172.7575 h 3.3223 M 31.2292,117.3865 h 3.3223 M 31.2292,62.0155 h 3.3223 "/></g><g fill="rgb(0,0,0)" stroke="rgb(0,0,0)" stroke-linecap="butt" stroke-width="1.4755595" font-size="11.0px" stroke-miterlimit="10.0" fill-opacity="1.0" stroke-opacity="1.0" stroke-linejoin="miter"><text dominant-baseline="middle" stroke="none" transform="matrix(1.0000,0.0000,0.0000,1.0000,26.5781,62.0155)" text-anchor="end">1.0</text></g><g fill="rgb(0,0,0)" stroke="rgb(0,0,0)" stroke-linecap="butt" stroke-width="1.4755595" font-size="11.0px" stroke-miterlimit="10.0" fill-opacity="1.0" stroke-opacity="1.0" stroke-linejoin="miter"><text dominant-baseline="middle" stroke="none" transform="matrix(1.0000,0.0000,0.0000,1.0000,26.5781,117.3865)" text-anchor="end">0.75</text></g><g fill="rgb(0,0,0)" stroke="rgb(0,0,0)" stroke-linecap="butt" stroke-width="1.4755595" font-size="11.0px" stroke-miterlimit="10.0" fill-opacity="1.0" stroke-opacity="1.0" stroke-linejoin="miter"><text dominant-baseline="middle" stroke="none" transform="matrix(1.0000,0.0000,0.0000,1.0000,26.5781,172.7575)" text-anchor="end">0.5</text></g><g fill="rgb(0,0,0)" stroke="rgb(0,0,0)" stroke-linecap="butt" stroke-width="1.4755595" font-size="11.0px" stroke-miterlimit="10.0" fill-opacity="1.0" stroke-opacity="1.0" stroke-linejoin="miter"><text dominant-baseline="middle" stroke="none" transform="matrix(1.0000,0.0000,0.0000,1.0000,26.5781,228.1285)" text-anchor="end">0.25</text></g><g fill="rgb(0,0,0)" stroke="rgb(0,0,0)" stroke-linecap="butt" stroke-width="1.4755595" font-size="11.0px" stroke-miterlimit="10.0" fill-opacity="1.0" stroke-opacity="1.0" stroke-linejoin="miter"><text dominant-baseline="middle" stroke="none" transform="matrix(1.0000,0.0000,0.0000,1.0000,26.5781,283.4994)" text-anchor="end">0.0</text></g><g fill="rgb(0,0,0)" stroke="rgb(0,0,0)" stroke-linecap="butt" stroke-width="0.8" stroke-miterlimit="10.0" fill-opacity="0.0" stroke-opacity="1.0" stroke-linejoin="miter"><path d="M 56.6999,305.6479 v -265.7808 M 113.4906,305.6479 v -265.7808 M 170.2814,305.6479 v -265.7808 M 227.0721,305.6479 v -265.7808 M 283.8629,305.6479 v -265.7808 "/></g><g fill="rgb(0,0,0)" stroke="rgb(0,0,0)" stroke-linecap="square" stroke-width="1.4755595" stroke-miterlimit="10.0" fill-opacity="0.0" stroke-opacity="1.0" stroke-linejoin="miter"><path d="M 34.5515,305.6479 h 265.7808 M 34.5515,39.8671 h 265.7808 "/></g><g fill="rgb(0,0,0)" stroke="rgb(0,0,0)" stroke-linecap="butt" stroke-width="0.4" stroke-miterlimit="10.0" fill-opacity="0.0" stroke-opacity="1.0" stroke-linejoin="miter"><path d="M 37.7696,39.8671 v -1.9934 M 47.2348,39.8671 v -1.9934 M 66.1650,39.8671 v -1.9934 M 75.6301,39.8671 v -1.9934 M 85.0952,39.8671 v -1.9934 M 94.5604,39.8671 v -1.9934 M 104.0255,39.8671 v -1.9934 M 122.9558,39.8671 v -1.9934 M 132.4209,39.8671 v -1.9934 M 141.8860,39.8671 v -1.9934 M 151.3511,39.8671 v -1.9934 M 160.8162,39.8671 v -1.9934 M 179.7465,39.8671 v -1.9934 M 189.2116,39.8671 v -1.9934 M 198.6768,39.8671 v -1.9934 M 208.1419,39.8671 v -1.9934 M 217.6071,39.8671 v -1.9934 M 236.5373,39.8671 v -1.9934 M 246.0024,39.8671 v -1.9934 M 255.4676,39.8671 v -1.9934 M 264.9327,39.8671 v -1.9934 M 274.3978,39.8671 v -1.9934 M 293.3280,39.8671 v -1.9934 "/></g><g fill="rgb(0,0,0)" stroke="rgb(0,0,0)" stroke-linecap="butt" stroke-width="0.4" stroke-miterlimit="10.0" fill-opacity="0.0" stroke-opacity="1.0" stroke-linejoin="miter"><path d="M 56.6999,39.8671 v -3.3223 M 113.4906,39.8671 v -3.3223 M 170.2814,39.8671 v -3.3223 M 227.0721,39.8671 v -3.3223 M 283.8629,39.8671 v -3.3223 "/></g><g fill="rgb(0,0,0)" stroke="rgb(0,0,0)" stroke-linecap="butt" stroke-width="0.4" stroke-miterlimit="10.0" fill-opacity="0.0" stroke-opacity="1.0" stroke-linejoin="miter"><path d="M 37.7696,307.6412 v -1.9934 M 47.2348,307.6412 v -1.9934 M 66.1650,307.6412 v -1.9934 M 75.6301,307.6412 v -1.9934 M 85.0952,307.6412 v -1.9934 M 94.5604,307.6412 v -1.9934 M 104.0255,307.6412 v -1.9934 M 122.9558,307.6412 v -1.9934 M 132.4209,307.6412 v -1.9934 M 141.8860,307.6412 v -1.9934 M 151.3511,307.6412 v -1.9934 M 160.8162,307.6412 v -1.9934 M 179.7465,307.6412 v -1.9934 M 189.2116,307.6412 v -1.9934 M 198.6768,307.6412 v -1.9934 M 208.1419,307.6412 v -1.9934 M 217.6071,307.6412 v -1.9934 M 236.5373,307.6412 v -1.9934 M 246.0024,307.6412 v -1.9934 M 255.4676,307.6412 v -1.9934 M 264.9327,307.6412 v -1.9934 M 274.3978,307.6412 v -1.9934 M 293.3280,307.6412 v -1.9934 "/></g><g fill="rgb(0,0,0)" stroke="rgb(0,0,0)" stroke-linecap="butt" stroke-width="0.4" stroke-miterlimit="10.0" fill-opacity="0.0" stroke-opacity="1.0" stroke-linejoin="miter"><path d="M 56.6999,308.9701 v -3.3223 M 113.4906,308.9701 v -3.3223 M 170.2814,308.9701 v -3.3223 M 227.0721,308.9701 v -3.3223 M 283.8629,308.9701 v -3.3223 "/></g><g fill="rgb(0,0,0)" stroke="rgb(0,0,0)" stroke-linecap="butt" stroke-width="1.4755595" font-size="11.0px" stroke-miterlimit="10.0" fill-opacity="1.0" stroke-opacity="1.0" stroke-linejoin="miter"><text dominant-baseline="text-before-edge" stroke="none" transform="matrix(1.0000,0.0000,0.0000,1.0000,283.8629,313.6213)" text-anchor="middle">2000.0</text></g><g fill="rgb(0,0,0)" stroke="rgb(0,0,0)" stroke-linecap="butt" stroke-width="1.4755595" font-size="11.0px" stroke-miterlimit="10.0" fill-opacity="1.0" stroke-opacity="1.0" stroke-linejoin="miter"><text dominant-baseline="text-before-edge" stroke="none" transform="matrix(1.0000,0.0000,0.0000,1.0000,227.0721,313.6213)" text-anchor="middle">1500.0</text></g><g fill="rgb(0,0,0)" stroke="rgb(0,0,0)" stroke-linecap="butt" stroke-width="1.4755595" font-size="11.0px" stroke-miterlimit="10.0" fill-opacity="1.0" stroke-opacity="1.0" stroke-linejoin="miter"><text dominant-baseline="text-before-edge" stroke="none" transform="matrix(1.0000,0.0000,0.0000,1.0000,170.2814,313.6213)" text-anchor="middle">1000.0</text></g><g fill="rgb(0,0,0)" stroke="rgb(0,0,0)" stroke-linecap="butt" stroke-width="1.4755595" font-size="11.0px" stroke-miterlimit="10.0" fill-opacity="1.0" stroke-opacity="1.0" stroke-linejoin="miter"><text dominant-baseline="text-before-edge" stroke="none" transform="matrix(1.0000,0.0000,0.0000,1.0000,113.4906,313.6213)" text-anchor="middle">500.0</text></g><g fill="rgb(0,0,0)" stroke="rgb(0,0,0)" stroke-linecap="butt" stroke-width="1.4755595" font-size="11.0px" stroke-miterlimit="10.0" fill-opacity="1.0" stroke-opacity="1.0" stroke-linejoin="miter"><text dominant-baseline="text-before-edge" stroke="none" transform="matrix(1.0000,0.0000,0.0000,1.0000,56.6999,313.6213)" text-anchor="middle">0.0</text></g><g fill="rgb(0,0,0)" stroke="rgb(77,175,74)" stroke-linecap="butt" stroke-width="3.0" stroke-miterlimit="10.0" fill-opacity="0.0" stroke-opacity="1.0" stroke-linejoin="miter"><defs><clipPath id="varyingmodulationmyClip1"><path d="M 300.3322,305.6478 l -0.0000,-265.7808 l -265.7808,0.0000 l 0.0000,265.7807 Z"/></clipPath></defs><g clip-path="url(#varyingmodulationmyClip1)"><path d="M 56.6999,283.4994 l 5.6791,-75.8604 l 5.6791,-23.8945 l 5.6791,-7.5263 l 5.6791,-2.3706 l 5.6791,-0.7467 l 5.6791,-0.3433 l 5.6791,48.5902 l 5.6791,27.2703 l 5.6791,15.3049 l 5.6791,8.5896 l 5.6791,4.8207 l 5.6791,2.7056 l 5.6791,1.5184 l 5.6791,0.8522 l 5.6791,0.4783 l 5.6791,0.2684 l 5.6791,0.1506 l 5.6791,0.1927 l 5.6791,-75.8604 l 5.6791,-23.8945 l 5.6791,-7.5263 l 5.6791,-2.3706 l 5.6791,-0.7467 l 5.6791,-0.3433 l 5.6791,48.5902 l 5.6791,27.2703 l 5.6791,15.3049 l 5.6791,8.5896 l 5.6791,4.8207 l 5.6791,2.7056 l 5.6791,1.5184 l 5.6791,0.8522 l 5.6791,0.4783 l 5.6791,0.2684 l 5.6791,0.1506 l 5.6791,0.1927 l 5.6791,-75.8604 l 5.6791,-23.8945 l 5.6791,-7.5263 "/></g></g><g fill="rgb(0,0,0)" stroke="rgb(55,126,184)" stroke-linecap="butt" stroke-width="3.0" stroke-miterlimit="10.0" fill-opacity="0.0" stroke-opacity="1.0" stroke-linejoin="miter"><defs><clipPath id="varyingmodulationmyClip2"><path d="M 300.3322,305.6478 l -0.0000,-265.7808 l -265.7808,0.0000 l 0.0000,265.7807 Z"/></clipPath></defs><g clip-path="url(#varyingmodulationmyClip2)"><path d="M 56.6999,283.2832 l 5.6791,-0.2163 l 5.6791,-0.4326 l 5.6791,-0.8652 l 5.6791,-1.7303 l 5.6791,-3.4607 l 5.6791,-6.9214 l 5.6791,-13.8427 l 5.6791,-27.6855 l 5.6791,-55.3710 l 5.6791,-110.7420 l 5.6791,31.5892 l 5.6791,28.4330 l 5.6791,25.4429 l 5.6791,22.6190 l 5.6791,19.9612 l 5.6791,17.4696 l 5.6791,15.1440 l 5.6791,12.9845 l 5.6791,10.9911 l 5.6791,9.1639 l 5.6791,7.5028 l 5.6791,6.0078 l 5.6791,4.6789 l 5.6791,3.5161 l 5.6791,2.5194 l 5.6791,1.6888 l 5.6791,1.0244 l 5.6791,0.5260 l 5.6791,0.1938 l 5.6791,0.0277 h 5.6791 h 5.6791 h 5.6791 h 5.6791 h 5.6791 h 5.6791 h 5.6791 h 5.6791 h 5.6791 "/></g></g><g fill="rgb(0,0,0)" stroke="rgb(228,26,28)" stroke-linecap="butt" stroke-width="3.0" stroke-miterlimit="10.0" fill-opacity="0.0" stroke-opacity="1.0" stroke-linejoin="miter"><defs><clipPath id="varyingmodulationmyClip3"><path d="M 300.3322,305.6478 l -0.0000,-265.7808 l -265.7808,0.0000 l 0.0000,265.7807 Z"/></clipPath></defs><g clip-path="url(#varyingmodulationmyClip3)"><path d="M 56.6999,283.4994 l 5.6791,-11.0696 l 5.6791,-11.0419 l 5.6791,-10.9866 l 5.6791,-10.9039 l 5.6791,-10.7939 l 5.6791,-10.6570 l 5.6791,-10.4934 l 5.6791,-10.3036 l 5.6791,-10.0880 l 5.6791,-9.8472 l 5.6791,-9.5818 l 5.6791,-9.2924 l 5.6791,-8.9798 l 5.6791,-8.6448 l 5.6791,-8.2882 l 5.6791,-7.9108 l 5.6791,-7.5137 l 5.6791,-7.0978 l 5.6791,-6.6641 l 5.6791,-6.2138 l 5.6791,-5.7480 l 5.6791,-5.2678 l 5.6791,-4.7744 l 5.6791,-4.2691 l 5.6791,-3.7532 l 5.6791,-3.2278 l 5.6791,-2.6944 l 5.6791,-2.1542 l 5.6791,-1.6087 l 5.6791,-1.0591 l 5.6791,-0.5069 l 5.6791,0.0465 l 5.6791,0.5999 l 5.6791,1.1518 l 5.6791,1.7007 l 5.6791,2.2455 l 5.6791,2.7846 l 5.6791,3.3168 l 5.6791,3.8406 "/></g></g><g fill="rgb(0,0,0)" stroke="rgb(0,0,0)" stroke-linecap="butt" stroke-width="1.4755595" font-size="11.0px" stroke-miterlimit="10.0" fill-opacity="1.0" stroke-opacity="1.0" stroke-linejoin="miter"><text dominant-baseline="text-after-edge" stroke="none" transform="matrix(1.0000,0.0000,0.0000,1.0000,167.4418,26.5781)" text-anchor="middle"></text></g><g fill="rgb(0,0,0)" stroke="rgb(0,0,0)" stroke-linecap="butt" stroke-width="1.4755595" stroke-miterlimit="10.0" fill-opacity="0.0" stroke-opacity="1.0" stroke-linejoin="miter"><path d="M 373.4219,79.7342 l -0.0000,-39.8671 l -59.8007,0.0000 l 0.0000,39.8671 Z"/></g><g fill="rgb(0,0,0)" stroke="rgb(0,0,0)" stroke-linecap="butt" stroke-width="1.4755595" font-size="11.0px" stroke-miterlimit="10.0" fill-opacity="1.0" stroke-opacity="1.0" stroke-linejoin="miter"><text dominant-baseline="middle" stroke="none" transform="matrix(1.0000,0.0000,0.0000,1.0000,333.5548,73.0897)" text-anchor="start">pulse</text></g><g fill="rgb(0,0,0)" stroke="rgb(77,175,74)" stroke-linecap="butt" stroke-width="3.0" stroke-miterlimit="10.0" fill-opacity="0.0" stroke-opacity="1.0" stroke-linejoin="miter"><path d="M 316.9435,73.0897 h 13.2890 "/></g><g fill="rgb(0,0,0)" stroke="rgb(0,0,0)" stroke-linecap="butt" stroke-width="1.4755595" font-size="11.0px" stroke-miterlimit="10.0" fill-opacity="1.0" stroke-opacity="1.0" stroke-linejoin="miter"><text dominant-baseline="middle" stroke="none" transform="matrix(1.0000,0.0000,0.0000,1.0000,333.5548,59.8006)" text-anchor="start">adEnv</text></g><g fill="rgb(0,0,0)" stroke="rgb(55,126,184)" stroke-linecap="butt" stroke-width="3.0" stroke-miterlimit="10.0" fill-opacity="0.0" stroke-opacity="1.0" stroke-linejoin="miter"><path d="M 316.9435,59.8006 h 13.2890 "/></g><g fill="rgb(0,0,0)" stroke="rgb(0,0,0)" stroke-linecap="butt" stroke-width="1.4755595" font-size="11.0px" stroke-miterlimit="10.0" fill-opacity="1.0" stroke-opacity="1.0" stroke-linejoin="miter"><text dominant-baseline="middle" stroke="none" transform="matrix(1.0000,0.0000,0.0000,1.0000,333.5548,46.5116)" text-anchor="start">sin</text></g><g fill="rgb(0,0,0)" stroke="rgb(228,26,28)" stroke-linecap="butt" stroke-width="3.0" stroke-miterlimit="10.0" fill-opacity="0.0" stroke-opacity="1.0" stroke-linejoin="miter"><path d="M 316.9435,46.5116 h 13.2890 "/></g></svg>